<mxfile host="app.diagrams.net" agent="Mozilla/5.0 (Windows NT 10.0; Win64; x64) AppleWebKit/537.36 (KHTML, like Gecko) Chrome/137.0.0.0 Safari/537.36 Edg/137.0.0.0" version="27.1.6">
  <diagram id="UDiPaYKwPEjdoG74yhhs" name="Seite-2">
    <mxGraphModel dx="2707" dy="1211" grid="1" gridSize="10" guides="1" tooltips="1" connect="1" arrows="1" fold="1" page="1" pageScale="1" pageWidth="827" pageHeight="1169" math="0" shadow="0">
      <root>
        <mxCell id="0" />
        <mxCell id="1" parent="0" />
        <mxCell id="hM8x4i0baz2HgnVe1_-W-18" style="edgeStyle=orthogonalEdgeStyle;rounded=0;orthogonalLoop=1;jettySize=auto;html=1;entryX=0.5;entryY=0;entryDx=0;entryDy=0;strokeColor=light-dark(#000000,#FF8000);" edge="1" parent="1" source="hM8x4i0baz2HgnVe1_-W-6" target="hM8x4i0baz2HgnVe1_-W-12">
          <mxGeometry relative="1" as="geometry" />
        </mxCell>
        <mxCell id="hM8x4i0baz2HgnVe1_-W-31" value="&lt;font style=&quot;font-size: 14px;&quot;&gt;3.3V&lt;/font&gt;" style="edgeLabel;html=1;align=center;verticalAlign=middle;resizable=0;points=[];" vertex="1" connectable="0" parent="hM8x4i0baz2HgnVe1_-W-18">
          <mxGeometry x="-0.4791" y="2" relative="1" as="geometry">
            <mxPoint as="offset" />
          </mxGeometry>
        </mxCell>
        <mxCell id="hM8x4i0baz2HgnVe1_-W-2" style="edgeStyle=orthogonalEdgeStyle;rounded=0;orthogonalLoop=1;jettySize=auto;html=1;" edge="1" parent="1" source="hM8x4i0baz2HgnVe1_-W-1" target="hM8x4i0baz2HgnVe1_-W-38">
          <mxGeometry relative="1" as="geometry">
            <mxPoint x="419.9999999999998" y="309.9999999999999" as="targetPoint" />
          </mxGeometry>
        </mxCell>
        <mxCell id="hM8x4i0baz2HgnVe1_-W-38" value="" style="rounded=1;whiteSpace=wrap;html=1;opacity=20;dashed=1;dashPattern=12 12;strokeWidth=1;strokeColor=light-dark(#000000,#FFFFFF);" vertex="1" parent="1">
          <mxGeometry x="-90" y="270" width="1300" height="870" as="geometry" />
        </mxCell>
        <mxCell id="hM8x4i0baz2HgnVe1_-W-1" value="&lt;b&gt;&lt;font style=&quot;font-size: 24px;&quot;&gt;Intelligenter Pflanzenwächter&lt;/font&gt;&lt;/b&gt;" style="rounded=1;whiteSpace=wrap;html=1;" vertex="1" parent="1">
          <mxGeometry x="385" y="140" width="350" height="60" as="geometry" />
        </mxCell>
        <mxCell id="hM8x4i0baz2HgnVe1_-W-4" style="edgeStyle=orthogonalEdgeStyle;rounded=0;orthogonalLoop=1;jettySize=auto;html=1;strokeColor=light-dark(#000000,#FF0000);exitX=0.5;exitY=1;exitDx=0;exitDy=0;" edge="1" parent="1" source="hM8x4i0baz2HgnVe1_-W-41" target="hM8x4i0baz2HgnVe1_-W-5">
          <mxGeometry relative="1" as="geometry">
            <mxPoint x="420" y="460" as="targetPoint" />
          </mxGeometry>
        </mxCell>
        <mxCell id="hM8x4i0baz2HgnVe1_-W-3" value="USB_2.0_TYPE_C_RECEPTACLE" style="rounded=1;whiteSpace=wrap;html=1;" vertex="1" parent="1">
          <mxGeometry x="320" y="310" width="200" height="60" as="geometry" />
        </mxCell>
        <mxCell id="hM8x4i0baz2HgnVe1_-W-7" style="edgeStyle=orthogonalEdgeStyle;rounded=0;orthogonalLoop=1;jettySize=auto;html=1;entryX=0.5;entryY=0;entryDx=0;entryDy=0;strokeColor=light-dark(#000000,#FF0000);" edge="1" parent="1" source="hM8x4i0baz2HgnVe1_-W-5" target="hM8x4i0baz2HgnVe1_-W-6">
          <mxGeometry relative="1" as="geometry" />
        </mxCell>
        <mxCell id="hM8x4i0baz2HgnVe1_-W-5" value="PROTECTIO_CIRCUIT_MODULE" style="rounded=1;whiteSpace=wrap;html=1;" vertex="1" parent="1">
          <mxGeometry x="325" y="548" width="190" height="60" as="geometry" />
        </mxCell>
        <mxCell id="hM8x4i0baz2HgnVe1_-W-15" style="edgeStyle=orthogonalEdgeStyle;rounded=0;orthogonalLoop=1;jettySize=auto;html=1;entryX=0.5;entryY=0;entryDx=0;entryDy=0;strokeColor=light-dark(#000000,#FF8000);" edge="1" parent="1" source="hM8x4i0baz2HgnVe1_-W-6" target="hM8x4i0baz2HgnVe1_-W-8">
          <mxGeometry relative="1" as="geometry" />
        </mxCell>
        <mxCell id="hM8x4i0baz2HgnVe1_-W-32" value="&lt;font style=&quot;font-size: 14px;&quot;&gt;3.3V&lt;/font&gt;" style="edgeLabel;html=1;align=center;verticalAlign=middle;resizable=0;points=[];" vertex="1" connectable="0" parent="hM8x4i0baz2HgnVe1_-W-15">
          <mxGeometry x="-0.388" y="-4" relative="1" as="geometry">
            <mxPoint as="offset" />
          </mxGeometry>
        </mxCell>
        <mxCell id="hM8x4i0baz2HgnVe1_-W-16" style="edgeStyle=orthogonalEdgeStyle;rounded=0;orthogonalLoop=1;jettySize=auto;html=1;entryX=0.5;entryY=0;entryDx=0;entryDy=0;strokeColor=light-dark(#000000,#FF8000);" edge="1" parent="1" source="hM8x4i0baz2HgnVe1_-W-6" target="hM8x4i0baz2HgnVe1_-W-10">
          <mxGeometry relative="1" as="geometry" />
        </mxCell>
        <mxCell id="hM8x4i0baz2HgnVe1_-W-6" value="LOW_DROPOUT_REGULATOR" style="rounded=1;whiteSpace=wrap;html=1;" vertex="1" parent="1">
          <mxGeometry x="330" y="728" width="180" height="60" as="geometry" />
        </mxCell>
        <mxCell id="hM8x4i0baz2HgnVe1_-W-8" value="FDC1004" style="rounded=1;whiteSpace=wrap;html=1;" vertex="1" parent="1">
          <mxGeometry x="40" y="928" width="120" height="60" as="geometry" />
        </mxCell>
        <mxCell id="hM8x4i0baz2HgnVe1_-W-10" value="POT3001" style="rounded=1;whiteSpace=wrap;html=1;" vertex="1" parent="1">
          <mxGeometry x="220" y="928" width="120" height="60" as="geometry" />
        </mxCell>
        <mxCell id="hM8x4i0baz2HgnVe1_-W-11" value="TMP1075" style="rounded=1;whiteSpace=wrap;html=1;" vertex="1" parent="1">
          <mxGeometry x="400" y="928" width="120" height="60" as="geometry" />
        </mxCell>
        <mxCell id="hM8x4i0baz2HgnVe1_-W-14" style="edgeStyle=orthogonalEdgeStyle;rounded=0;orthogonalLoop=1;jettySize=auto;html=1;entryX=0;entryY=0.5;entryDx=0;entryDy=0;exitX=1;exitY=0.5;exitDx=0;exitDy=0;" edge="1" parent="1" source="hM8x4i0baz2HgnVe1_-W-12" target="hM8x4i0baz2HgnVe1_-W-13">
          <mxGeometry relative="1" as="geometry">
            <Array as="points">
              <mxPoint x="890" y="958" />
              <mxPoint x="890" y="958" />
            </Array>
          </mxGeometry>
        </mxCell>
        <mxCell id="hM8x4i0baz2HgnVe1_-W-23" style="edgeStyle=orthogonalEdgeStyle;rounded=0;orthogonalLoop=1;jettySize=auto;html=1;exitX=0;exitY=0.5;exitDx=0;exitDy=0;entryX=1;entryY=0.5;entryDx=0;entryDy=0;dashed=1;dashPattern=8 8;fillColor=#60a917;strokeColor=#2D7600;" edge="1" parent="1" source="hM8x4i0baz2HgnVe1_-W-12" target="hM8x4i0baz2HgnVe1_-W-11">
          <mxGeometry relative="1" as="geometry">
            <Array as="points">
              <mxPoint x="630" y="958" />
              <mxPoint x="630" y="958" />
            </Array>
          </mxGeometry>
        </mxCell>
        <mxCell id="hM8x4i0baz2HgnVe1_-W-34" value="&lt;font style=&quot;font-size: 14px;&quot;&gt;I²C&lt;/font&gt;" style="edgeLabel;html=1;align=center;verticalAlign=middle;resizable=0;points=[];" vertex="1" connectable="0" parent="hM8x4i0baz2HgnVe1_-W-23">
          <mxGeometry x="-0.07" y="-1" relative="1" as="geometry">
            <mxPoint x="-7" y="1" as="offset" />
          </mxGeometry>
        </mxCell>
        <mxCell id="hM8x4i0baz2HgnVe1_-W-24" style="edgeStyle=orthogonalEdgeStyle;rounded=0;orthogonalLoop=1;jettySize=auto;html=1;entryX=0.5;entryY=1;entryDx=0;entryDy=0;dashed=1;dashPattern=8 8;exitX=0.25;exitY=1;exitDx=0;exitDy=0;fillColor=#60a917;strokeColor=#2D7600;" edge="1" parent="1" source="hM8x4i0baz2HgnVe1_-W-12" target="hM8x4i0baz2HgnVe1_-W-10">
          <mxGeometry relative="1" as="geometry">
            <Array as="points">
              <mxPoint x="750" y="1028" />
              <mxPoint x="280" y="1028" />
            </Array>
          </mxGeometry>
        </mxCell>
        <mxCell id="hM8x4i0baz2HgnVe1_-W-37" value="&lt;span style=&quot;font-size: 14px;&quot;&gt;I²C&lt;/span&gt;" style="edgeLabel;html=1;align=center;verticalAlign=middle;resizable=0;points=[];" vertex="1" connectable="0" parent="hM8x4i0baz2HgnVe1_-W-24">
          <mxGeometry x="-0.9262" y="-3" relative="1" as="geometry">
            <mxPoint x="-127" y="20" as="offset" />
          </mxGeometry>
        </mxCell>
        <mxCell id="hM8x4i0baz2HgnVe1_-W-46" style="edgeStyle=orthogonalEdgeStyle;rounded=0;orthogonalLoop=1;jettySize=auto;html=1;exitX=0.75;exitY=0;exitDx=0;exitDy=0;entryX=0;entryY=0.5;entryDx=0;entryDy=0;strokeColor=light-dark(#000000,#FF8000);" edge="1" parent="1" source="hM8x4i0baz2HgnVe1_-W-12" target="hM8x4i0baz2HgnVe1_-W-47">
          <mxGeometry relative="1" as="geometry">
            <mxPoint x="960" y="850" as="targetPoint" />
            <Array as="points">
              <mxPoint x="900" y="928" />
              <mxPoint x="900" y="840" />
            </Array>
          </mxGeometry>
        </mxCell>
        <mxCell id="hM8x4i0baz2HgnVe1_-W-48" style="edgeStyle=orthogonalEdgeStyle;rounded=0;orthogonalLoop=1;jettySize=auto;html=1;exitX=0.75;exitY=0;exitDx=0;exitDy=0;entryX=0;entryY=0.5;entryDx=0;entryDy=0;fillColor=#60a917;strokeColor=#2D7600;dashed=1;dashPattern=8 8;" edge="1" parent="1" source="hM8x4i0baz2HgnVe1_-W-12" target="hM8x4i0baz2HgnVe1_-W-47">
          <mxGeometry relative="1" as="geometry">
            <Array as="points">
              <mxPoint x="900" y="928" />
              <mxPoint x="900" y="840" />
            </Array>
          </mxGeometry>
        </mxCell>
        <mxCell id="hM8x4i0baz2HgnVe1_-W-12" value="MSP430" style="rounded=1;whiteSpace=wrap;html=1;" vertex="1" parent="1">
          <mxGeometry x="720" y="928" width="120" height="60" as="geometry" />
        </mxCell>
        <mxCell id="hM8x4i0baz2HgnVe1_-W-28" style="edgeStyle=orthogonalEdgeStyle;rounded=0;orthogonalLoop=1;jettySize=auto;html=1;entryX=1;entryY=0.5;entryDx=0;entryDy=0;fillColor=#60a917;strokeColor=#2D7600;" edge="1" parent="1" source="hM8x4i0baz2HgnVe1_-W-13" target="hM8x4i0baz2HgnVe1_-W-12">
          <mxGeometry relative="1" as="geometry">
            <Array as="points">
              <mxPoint x="890" y="958" />
              <mxPoint x="890" y="958" />
            </Array>
          </mxGeometry>
        </mxCell>
        <mxCell id="hM8x4i0baz2HgnVe1_-W-13" value="JTAG_INTERFACE_MSP430" style="rounded=1;whiteSpace=wrap;html=1;" vertex="1" parent="1">
          <mxGeometry x="950" y="928" width="190" height="60" as="geometry" />
        </mxCell>
        <mxCell id="hM8x4i0baz2HgnVe1_-W-17" style="edgeStyle=orthogonalEdgeStyle;rounded=0;orthogonalLoop=1;jettySize=auto;html=1;entryX=0.543;entryY=0.021;entryDx=0;entryDy=0;entryPerimeter=0;strokeColor=light-dark(#000000,#FF8000);" edge="1" parent="1" source="hM8x4i0baz2HgnVe1_-W-6" target="hM8x4i0baz2HgnVe1_-W-11">
          <mxGeometry relative="1" as="geometry" />
        </mxCell>
        <mxCell id="hM8x4i0baz2HgnVe1_-W-33" value="&lt;font style=&quot;font-size: 14px;&quot;&gt;3.3V&lt;/font&gt;" style="edgeLabel;html=1;align=center;verticalAlign=middle;resizable=0;points=[];" vertex="1" connectable="0" parent="hM8x4i0baz2HgnVe1_-W-17">
          <mxGeometry x="-0.6525" y="-2" relative="1" as="geometry">
            <mxPoint as="offset" />
          </mxGeometry>
        </mxCell>
        <mxCell id="hM8x4i0baz2HgnVe1_-W-25" style="edgeStyle=orthogonalEdgeStyle;rounded=0;orthogonalLoop=1;jettySize=auto;html=1;entryX=0.417;entryY=1;entryDx=0;entryDy=0;entryPerimeter=0;dashed=1;dashPattern=8 8;exitX=0.75;exitY=1;exitDx=0;exitDy=0;fillColor=#60a917;strokeColor=#2D7600;" edge="1" parent="1" source="hM8x4i0baz2HgnVe1_-W-12" target="hM8x4i0baz2HgnVe1_-W-8">
          <mxGeometry relative="1" as="geometry">
            <Array as="points">
              <mxPoint x="810" y="1088" />
              <mxPoint x="90" y="1088" />
            </Array>
          </mxGeometry>
        </mxCell>
        <mxCell id="hM8x4i0baz2HgnVe1_-W-35" value="&lt;span style=&quot;font-size: 14px;&quot;&gt;I²C&lt;/span&gt;" style="edgeLabel;html=1;align=center;verticalAlign=middle;resizable=0;points=[];" vertex="1" connectable="0" parent="hM8x4i0baz2HgnVe1_-W-25">
          <mxGeometry x="-0.9314" y="-1" relative="1" as="geometry">
            <mxPoint x="-189" y="68" as="offset" />
          </mxGeometry>
        </mxCell>
        <mxCell id="hM8x4i0baz2HgnVe1_-W-27" style="edgeStyle=orthogonalEdgeStyle;rounded=0;orthogonalLoop=1;jettySize=auto;html=1;entryX=1;entryY=0.5;entryDx=0;entryDy=0;fillColor=#e51400;strokeColor=light-dark(#B20000,#FF3333);" edge="1" parent="1" source="hM8x4i0baz2HgnVe1_-W-26" target="hM8x4i0baz2HgnVe1_-W-3">
          <mxGeometry relative="1" as="geometry" />
        </mxCell>
        <mxCell id="hM8x4i0baz2HgnVe1_-W-30" value="&lt;font style=&quot;font-size: 14px;&quot;&gt;5V&lt;/font&gt;" style="edgeLabel;html=1;align=center;verticalAlign=middle;resizable=0;points=[];" vertex="1" connectable="0" parent="hM8x4i0baz2HgnVe1_-W-27">
          <mxGeometry x="-0.189" y="-2" relative="1" as="geometry">
            <mxPoint as="offset" />
          </mxGeometry>
        </mxCell>
        <mxCell id="hM8x4i0baz2HgnVe1_-W-26" value="&lt;font style=&quot;font-size: 48px;&quot;&gt;=&lt;/font&gt;" style="ellipse;whiteSpace=wrap;html=1;aspect=fixed;" vertex="1" parent="1">
          <mxGeometry x="650" y="300" width="80" height="80" as="geometry" />
        </mxCell>
        <mxCell id="hM8x4i0baz2HgnVe1_-W-41" value="" style="whiteSpace=wrap;html=1;aspect=fixed;fillColor=light-dark(#FFFFFF,#FFFFFF);" vertex="1" parent="1">
          <mxGeometry x="391" y="432" width="58" height="58" as="geometry" />
        </mxCell>
        <mxCell id="hM8x4i0baz2HgnVe1_-W-40" value="" style="shape=image;verticalLabelPosition=bottom;labelBackgroundColor=default;verticalAlign=top;aspect=fixed;imageAspect=0;image=data:image/png,iVBORw0KGgoAAAANSUhEUgAAAMgAAADGCAQAAAA9WwdlAAAABGdBTUEAALGPC/xhBQAAACBjSFJNAAB6JgAAgIQAAPoAAACA6AAAdTAAAOpgAAA6mAAAF3CculE8AAAAAmJLR0QA/4ePzL8AAAAHdElNRQfhCAoFAA/YdRZYAAALfElEQVR42u2deXRV1RWHvySEJBAQSGUQwtBYAkqqFaiChTowBeqiIiBlUFDmtpRRqxXUKsWKA0WWiBZKBVpXFYQyFEQpKiBiBaQIAZECMpeGWYbk5fQPdi4BEjK8c+99w/69P7LWy73n7nO+d6Z9ztk3BoMqdDQlVssgtKRAQkzl5O997NDC8FVj6VoQyHY2a5n4qmxtsrQPUSkQBaJSIApEpUAUiEqBqBSIAlEpEAWiUiAKRKVAFIhKgagUiAJRKRAFolIgCkSlQBSISoEoEJUCUSkQBaJSIApEpUAUiEqBKBCVAlEVrnK+Pbk+LbmeVGpyBjjJVjbzBQcUiPe6nQfIJLWQ/xg+513mkRXNSAwGQxNPnlWeQWyTJxb9yWMxraOOwzQMhle8qyGx9GMcdQt8s48N7OYAuVShKo1pQjUAYuhIR1YzjPVaQ9xSBqsL1IG1DCXtimtiaM7v+Mq5KoeXSI62GuIFkFge5bw8J5fZ3FjM1V341IGymxYKxK6qs8wp3iWkl/CuzuyRe84xWIHY0438R55wkO6lurMSL5Mr904nQYHYUFuOS/rvUbMM97fjiNy/jAoKJFj9lLMyjH2qzB6B+qwXC1dSSYEEo/vJwWA4Q8+g0kni72LjJ1RRIGVVO85hMJyirQVvwiyx8tMIbrhcBdKKbzEYjtHSSnpxvCl2/i1i3aEuAmnAYQyG07SyOJd5SyydqEBKp0psknl2plWDE/lIbB2qQErzS57vWrFVY6ugvl2BlFTjJb2prhjdgEPiUElRICXRjwlgMHxEeZfMvlNm74uJUSDFKYV9GAw7Xf39Pi0WP6pAitM8aeFbump4HCvkOU2vMnMJWyD2RvUPc6/0ImtcNTxALw4B5ZhBfKFXdGUj14VvVbFTQ2pxFINhXRGFZFedxOonC/lfF3IwZIUdEstN1lwMhpN81yPz/yJrJRmXfX+vLIUdp3k0A8n/xY7wzPwUDmIwrL+kRmaKf/lUGG6SsAikoqzufUachxnoLpYPd77pIDhOc0d0j7KeklHPDzzOwoVR3VGuBaAdZwTHndE97K3NKQyGyZ5noY48eRrQ1sFxV7TPQ2ZiMGT74swYKztZBou7/1vujvaJYbq4Mkb4kokkdgmSC2OuTuE/Uw92YvgkccAeXvUlE2cYI7N3OM99LPbFitEs555QmRh2Zi2Ggb79rlpK7cijm08WVJAB+ON2akiwXp8FLKAVa30qjBYslaF2DDf4ZMMQagDnmR1arhM/dJvs+gpIh17PBxuqyM6xaaHSh/inW1hCZSDAYI4CSTzngxW/JgU4y/hQ6UP80s38T8ZXPYFfST/yI4+tqCfD7d+H1kzdDxxHBEdvAOLZgsHwuafOm3xfwRErG/jCGMhNgiNAH+e7dpKP0R7akWl1O0fYAsngv9JAXTrYnitde0OP7EiUo0W2amWYAmnEAcEx6LL/1CJbNlh4M1CZILX01tBynXirdPYLjiGF/PdBycsvPZyQvm7bdRJOQBrKrpa8IlvtJbJumeayJRWludpjcT9+2AH5noPjF0VeU1tW9jeS5Kotr4olHSymGWZAUvlGCmHYVa97WPIzxUVbupDnwjPCDEgcc0q4PW625KirS5Y05gQGw3bLZ1XCrsmKYzaPleC6ZNmSfYzrXbCisqR+mpstpxyGnXpJd/M24TQGww6qW7fgbSmvvtZzF9auk+L0kORqFYlW031e0v2DCzZHNBCYKPlaYNG7NU7SXO3K3v4IB3LxCNxUSwcXRkh6WdYbwkuA+LVPPIbGtKYZqaSSTA6whyw284mlCEB59OU6WgGDSWAAgSDTG8CLAOyiDYfdLRrva8j3eUk8UoV9djGJZlaeU40vJM2/BnlAYaSsSu5z0QfgU5PVnlXFBjAzGD6gnYWnpfCZpPcPqpZ5uP2ypHHY1XV7H4A0Y80lhb6d6TzCz2jDT+jOGGY4v+j8zjMj6Gde48Tp+rpMM4fqfCD37+cmV0vHYyCVmOzE9jFsZjR1Cr2uPiMKYDnPhKDnw8lOeKjTDCxlB5/JXrl3i+tbKDwF0pwdTiGvKrYxiqGjcybdsK2YgGclaXQmiPfJ8HGJU6vpRI8wLCpzgxeSQIZL3BPDrlLs8Osmax+Gkxb8Ul3EA2U4z5RijxVVZbxs5DbkMtaTE78eAYnnDSfW6CQqlrL9n+rcOyHoQkkrENkul7fILHQWH0crZspeEoNhEz/0aLjjCZAKvCfpHypjoI0ezi/1DQtLsz2cWnfhnNUCnqUPbWhDG3oxlndkGdiIe/Ix187b+wKkgjNC2VBEF14SZThxSmdZOO5ciVGysnL1z3Gel6C1EQMkifcl7YVBBntN4V+S0ttWzvjG04elcvztyk+ANfT3ITyty0ASWCwpL7YQwPLibGK6NQuT6cJzzGML2WSTzRYWMYluvkVRcRVInGw3MMy31Aons1JSHEtkylUgk5w4vfbCu1ZgrYy4HlQgpVP+RoOllscoNSUG8LmwPPbsG5DbpbvMciGGaGMZlh4M51gmVwdie9tlHd4lAcjmHo5ZN3orXcgFajDL433uninWcmp/5logQG++csXelTwBwF2Mi9DO3WqT9cgV4S7sK0YG1AELEYEjvA+5RZyIS112xlWV0+n7PfDBhnEfksgcygOH6Ytx1fSj9CQXqMUL2ocUrbE0Agz9Oei61WsExUO01z6kcGVI4LDXPbI6UbZ07oqYdyZYbbJieY144KBnsULP0o8AUI8J2mRdqf4SiXQYRz2zfC2vADAk7IL5ud5kVZZ40ws9trwiX2MwrImIoMoWm6wnqA6cZ6THWTjNKABa0EtryEWliu/Kn9dILMdg2BsB7zu0VkMeJwE4wrO+ZGM4uUDtEh3lcU/XhE4NSZXZ+RjfCmOyvOmqgW8WlGc3y8kMsiez5DqJoQMrOODju6GqSaCNub5ZMEi2FqWFApAL+o6vDcYQyYM/8UgTxLMWbACzCDqwEye7gTf5skYyUupH41CaqfurgLj7M66If+K+qkisxTfZGjoTw1DQOxK5qprHz31RYhDVCTqlCKohAGM4C6TwjKdPbSJxJSaxN5RcJ6GhZ2Qd0bv3IsTwTwyGA1S2NzGMHCD5nq1tLgeeuag+Unb325ypR9Kx6DvkWI43Tpzq4lJ9367rJLLOqb8mQ9BbPXjWQgyGszRSIEWrsrxa5kvXPQf5uzPtuYwiNJJDfqTQP7n6lAZyQO5ji3sSIja0xjTJkXtbshPl9LvdUIIRCySJjXJgza1j/jOkzAa68EOKyOAzDaVB+dLK/OByDXYO2KFASqoekqtl1l9z2ULWfzZYn+1EeHimKZKvGVY3QNzAYfGZ2V8Oi3Agccy/yutZy6Y0CVQbKOMR76gGAslydjfP0gvLUuX8Vh79XRwdRjCQi0fgDL+xkFaWy0ctogAIpEsjY4J8A05Ddrp+BjgqgECarHgbZpXZndJaXpBh5006UQ4E6jqhOTaWYWYdwyhy5P7furplNWqAQC0n0F82D5SqUOs6ARByGOCJyycqgEAif3RimawgvUT3JDDCibF10IM3UEcVEIABTriZc0wvZtNOEv3Z7SD80JNT8VEHBNJZUSDmzyL6FRISOZ7WTCoQNesEP/foFUo+B1L2Q9u4m95MpAYQSyc6kce/2cZ2TgHx1KUBtxXYRx9gFuP4xmszo6eG5DdHQwuE5Czqc5Y5Hr9dNwqbrIuKozMzxVF4+SeHVYz0YbdyFDZZFGiMFrCAOJqSQUPSqQjksJudZPEhJ/w0LTqB5GNZx7pQMyoWlQJRKRAFolIgCkSlQBSISoEoEJUCUSkQBaJSIApEpUAUiEqBKBCVAlEpEAWiUiAKRKVAFIhKgSgQlQJRKRAFolIgCkSlQBSISoEoEJUCUSkQBaJSIGGr/EgOL/gbUEJF00uBtNcS0SZLVYj+D26n3EmJqo+MAAAAJXRFWHRkYXRlOmNyZWF0ZQAyMDE3LTA4LTEwVDA1OjAwOjE1KzAwOjAwEhorYwAAACV0RVh0ZGF0ZTptb2RpZnkAMjAxNy0wOC0xMFQwNTowMDoxNSswMDowMGNHk98AAAAASUVORK5CYII=;fontColor=light-dark(#000000,#FFFFFF);" vertex="1" parent="1">
          <mxGeometry x="390.2" y="431.5" width="59.6" height="59" as="geometry" />
        </mxCell>
        <mxCell id="hM8x4i0baz2HgnVe1_-W-45" style="edgeStyle=orthogonalEdgeStyle;rounded=0;orthogonalLoop=1;jettySize=auto;html=1;strokeColor=light-dark(#000000,#FF0000);exitX=0.5;exitY=1;exitDx=0;exitDy=0;entryX=0.5;entryY=0;entryDx=0;entryDy=0;" edge="1" parent="1" source="hM8x4i0baz2HgnVe1_-W-3" target="hM8x4i0baz2HgnVe1_-W-41">
          <mxGeometry relative="1" as="geometry">
            <mxPoint x="420" y="420" as="targetPoint" />
            <mxPoint x="450" y="510" as="sourcePoint" />
          </mxGeometry>
        </mxCell>
        <mxCell id="hM8x4i0baz2HgnVe1_-W-47" value="&amp;nbsp;OLED_128x64" style="rounded=1;whiteSpace=wrap;html=1;" vertex="1" parent="1">
          <mxGeometry x="985" y="810" width="120" height="60" as="geometry" />
        </mxCell>
      </root>
    </mxGraphModel>
  </diagram>
</mxfile>
